<?xml version="1.0" standalone="no"?>
<!DOCTYPE svg PUBLIC "-//W3C//DTD SVG 20010904//EN"
 "http://www.w3.org/TR/2001/REC-SVG-20010904/DTD/svg10.dtd">
<svg version="1.0" xmlns="http://www.w3.org/2000/svg"
 width="1091.000000pt" height="1091.000000pt" viewBox="0 0 1091.000000 1091.000000"
 preserveAspectRatio="xMidYMid meet">
<metadata>
Created by potrace 1.11, written by Peter Selinger 2001-2013
</metadata>
<g transform="translate(0.000000,1091.000000) scale(0.100000,-0.100000)"
fill="#000000" stroke="none">
<path d="M4918 10382 l-36 -3 1 -1207 2 -1207 1207 0 1208 0 0 1208 c0 948 -3
1207 -13 1208 -52 2 -2340 3 -2369 1z"/>
<path d="M7385 10382 l-50 -3 0 -1207 0 -1207 1208 0 1207 0 0 1207 c0 665 -3
1208 -7 1209 -34 2 -2320 3 -2358 1z"/>
<path d="M4203 9738 c-674 -675 -1703 -1709 -1740 -1750 l-22 -23 1202 0 1202
0 0 1208 c0 664 0 1207 0 1207 -1 0 -290 -289 -642 -642z"/>
<path d="M2437 6728 c0 -662 2 -1209 2 -1215 1 -10 248 -13 1200 -13 950 0
1200 3 1203 13 2 6 4 552 4 1212 l-1 1200 -1205 3 -1205 2 2 -1202z"/>
<path d="M7335 6718 l0 -1213 1208 -3 1207 -2 0 1215 0 1215 -1208 0 -1207 0
0 -1212z"/>
<path d="M1862 7387 c-1036 -1037 -1862 -1871 -1862 -1879 0 -4 540 -8 1200
-8 l1200 0 0 43 c2 359 0 2371 -3 2373 -2 2 -242 -236 -535 -529z"/>
<path d="M2439 5460 c-4 -25 -1 -2401 3 -2405 4 -5 1196 -7 2283 -5 l120 0 0
1205 c0 663 -2 1206 -5 1206 -16 5 -2400 4 -2401 -1z"/>
<path d="M4882 4255 l0 -1210 1177 2 c647 2 1191 3 1208 3 l33 0 -3 1208 -2
1207 -1207 0 -1206 1 0 -1211z"/>
<path d="M7339 5465 c-5 0 -3 -2405 1 -2405 3 0 546 541 1208 1203 l1202 1202
-1205 0 c-663 0 -1206 0 -1206 0z"/>
<path d="M4923 3012 l-41 -3 0 -1205 c0 -663 2 -1204 4 -1202 2 2 545 544
1207 1206 850 850 1197 1202 1182 1203 -68 2 -2318 3 -2352 1z"/>
</g>
</svg>
